# xmcd
#
# Track frame offsets:
#	150
#	30424
#	42447
#	58214
#	69706
#	87344
#	103751
#	116182
#	135927
#
# Disc length: 2011 seconds
#
# Revision: 1
# Processed by: cddbd v1.4PL0 Copyright (c) Steve Scherf et al.
# Submitted via: audiograbber 1.81.02
#
DISCID=7d07d909
DTITLE=ZZ Top - The Steel Guitar Tribute
DYEAR=1900
DGENRE=Fetziger Blus
TTITLE0=Waitin For The Bus/Jesus Just Left For Chicago
TTITLE1=La Grange
TTITLE2=Beer Drinkers And Hell Raisers
TTITLE3=Tush
TTITLE4=Heard It On The X
TTITLE5=Gimmee All Your Lovin
TTITLE6=I Thank You
TTITLE7=Blue Jean Blues
TTITLE8=Red Dress
EXTD=
EXTT0=
EXTT1=
EXTT2=
EXTT3=
EXTT4=
EXTT5=
EXTT6=
EXTT7=
EXTT8=
PLAYORDER=
